<svg xmlns="http://www.w3.org/2000/svg" viewBox="0 0 128 128">
  <defs>
    <linearGradient id="g" x1="0" y1="0" x2="1" y2="1">
      <stop offset="0" stop-color="#0ea5e9"/>
      <stop offset="1" stop-color="#6366f1"/>
    </linearGradient>
  </defs>
  <rect width="128" height="128" rx="24" fill="url(#g)"/>
  <g fill="#fff" stroke="#fff" stroke-width="2" transform="translate(20,16)">
    <path d="M50 12a22 22 0 1 1-44 0 22 22 0 0 1 44 0Z"/>
    <path d="M0 70c0-14 16-24 28-24h4c12 0 28 10 28 24v10a6 6 0 0 1-6 6H6a6 6 0 0 1-6-6V70Z"/>
    <circle cx="80" cy="88" r="12"/>
    <path d="M72 70h16"/>
  </g>
</svg>
